<?xml version="1.0" encoding="iso-8859-1"?>
<!-- Uploaded to: SVG Repo, www.svgrepo.com, Generator: SVG Repo Mixer Tools -->
<svg version="1.1" id="Layer_1" xmlns="http://www.w3.org/2000/svg" xmlns:xlink="http://www.w3.org/1999/xlink" 
	 viewBox="0 0 509 509" xml:space="preserve">
<path style="fill:#FBD303;" d="M509,254.5C509,113.9,395.1,0,254.5,0S0,113.9,0,254.5c0,58.7,19.9,112.7,53.3,155.8h402.4
	C489.1,367.2,509,313.2,509,254.5z"/>
<path style="fill:#6EB1E1;" d="M53.3,410.3c46.6,60,119.3,98.7,201.2,98.7s154.6-38.7,201.2-98.7H53.3z"/>
<path style="fill:#F1F3F7;" d="M364.7,276.9H144.3v-113c0-2.7,2.2-4.8,4.8-4.8h210.8c2.7,0,4.8,2.2,4.8,4.8V276.9z"/>
<g>
	<rect x="172.8" y="186.1" style="fill:#6EB1E1;" width="22.1" height="31.8"/>
	<rect x="219.9" y="186.1" style="fill:#6EB1E1;" width="22.1" height="31.8"/>
	<rect x="267" y="186.1" style="fill:#6EB1E1;" width="22.1" height="31.8"/>
	<rect x="314.2" y="186.1" style="fill:#6EB1E1;" width="22.1" height="31.8"/>
</g>
<polygon style="fill:#646B79;" points="88.6,268.7 254.5,209.4 254.5,480.4 164.2,460.2 "/>
<polygon style="fill:#4F5565;" points="420.4,268.7 254.5,209.4 254.5,480.4 344.8,460.2 "/>
<path style="fill:#DEDEDF;" d="M318.1,118.6H190.9c-6.1,0-11.1,5-11.1,11.1v29.4h149.3v-29.4C329.2,123.5,324.2,118.6,318.1,118.6z"
	/>
<rect x="229.2" y="28.6" style="fill:#393D47;" width="50.6" height="89.9"/>
<rect x="229.2" y="44.8" style="fill:#F0582F;" width="50.6" height="22.5"/>
<g>
	<rect x="193.3" y="130.1" style="fill:#4485C5;" width="34.1" height="17.4"/>
	<rect x="237.5" y="130.1" style="fill:#4485C5;" width="34.1" height="17.4"/>
	<rect x="281.6" y="130.1" style="fill:#4485C5;" width="34.1" height="17.4"/>
</g>
</svg>